<?xml version="1.0" encoding="UTF-8" standalone="no"?>
<svg width="14.224001mm" height="14.732mm" viewBox="0 0 14.224001 14.732" version="1.1" id="svg8" inkscape:version="1.1.2 (b8e25be833, 2022-02-05)" sodipodi:docname="OSZ-LI.svg" xmlns:inkscape="http://www.inkscape.org/namespaces/inkscape" xmlns:sodipodi="http://sodipodi.sourceforge.net/DTD/sodipodi-0.dtd" xmlns="http://www.w3.org/2000/svg" xmlns:svg="http://www.w3.org/2000/svg" xmlns:rdf="http://www.w3.org/1999/02/22-rdf-syntax-ns#" xmlns:cc="http://creativecommons.org/ns#" xmlns:dc="http://purl.org/dc/elements/1.1/">
  <defs id="defs2">
    <marker markerWidth="18" markerHeight="3" refX="9" refY="1.5000001" orient="auto" id="marker1006">
      <g id="g929" transform="scale(3.7795276)">
        <rect style="fill:#ffffff;fill-opacity:1;fill-rule:nonzero;stroke:none;stroke-width:0.264999;stroke-linecap:butt;stroke-linejoin:round;stroke-miterlimit:4;stroke-dasharray:none" id="rect995" width="2.3812499" height="0.79374999" x="0" y="0" ry="0"/>
        <path id="path835" style="fill-opacity:1;fill-rule:nonzero;stroke:none;stroke-width:0.03975;stroke-linecap:round;stroke-linejoin:round;stroke-miterlimit:4;stroke-dasharray:none;stroke-opacity:1" d="M 0,-3.3333335e-8 V 0.79374997 L 2.38125,0.39687499 Z" sodipodi:nodetypes="cccc" inkscape:transform-center-x="1.1901846"/>
        <path id="path925" style="fill:none;fill-opacity:1;fill-rule:nonzero;stroke:none;stroke-width:0.03975;stroke-linecap:round;stroke-linejoin:round;stroke-miterlimit:4;stroke-dasharray:none;stroke-opacity:1" d="M 4.7625,0 V 0.79375 L 2.38125,0.396875 Z" sodipodi:nodetypes="cccc" inkscape:transform-center-x="-1.1901846"/>
      </g>
    </marker>
    <marker markerWidth="18" markerHeight="3.0000002" refX="9" refY="1.5000002" orient="auto" id="marker1038">
      <g id="g1036" transform="matrix(3.7795276,0,0,3.7795276,9,-6)">
        <rect style="fill:#ffffff;fill-opacity:1;fill-rule:nonzero;stroke:none;stroke-width:0.264999;stroke-linecap:butt;stroke-linejoin:round;stroke-miterlimit:4;stroke-dasharray:none" id="rect995-7" width="2.3812499" height="0.79374999" x="0" y="1.5875001" ry="0"/>
        <path id="path887" style="fill-opacity:1;fill-rule:nonzero;stroke:none;stroke-width:0.03975;stroke-linecap:round;stroke-linejoin:round;stroke-miterlimit:4;stroke-dasharray:none;stroke-opacity:1" d="M 2.38125,1.5875 V 2.38125 L 0,1.984375 Z" sodipodi:nodetypes="cccc" inkscape:transform-center-x="-1.1901846"/>
        <path id="path923" style="fill:none;fill-opacity:1;fill-rule:nonzero;stroke:none;stroke-width:0.03975;stroke-linecap:round;stroke-linejoin:round;stroke-miterlimit:4;stroke-dasharray:none;stroke-opacity:1" d="M -2.38125,1.5875 V 2.38125 L 0,1.984375 Z" sodipodi:nodetypes="cccc" inkscape:transform-center-x="1.1901846"/>
      </g>
    </marker>
  </defs>
  <sodipodi:namedview id="base" pagecolor="#ffffff" bordercolor="#666666" borderopacity="1.0" inkscape:pageopacity="0.0" inkscape:pageshadow="2" inkscape:zoom="2.8" inkscape:cx="71.964286" inkscape:cy="85" inkscape:document-units="mm" inkscape:current-layer="g30" inkscape:document-rotation="0" showgrid="true" inkscape:snap-grids="true" inkscape:pagecheckerboard="0" fit-margin-top="0" fit-margin-left="0" fit-margin-right="0" fit-margin-bottom="0">
    <inkscape:grid type="xygrid" id="grid833" units="mm" originx="-19.826111" originy="-38.488056"/>
  </sodipodi:namedview>
  <metadata id="metadata5">
    <rdf:RDF>
      <cc:Work rdf:about="">
        <dc:format>image/svg+xml</dc:format>
        <dc:type rdf:resource="http://purl.org/dc/dcmitype/StillImage"/>
      </cc:Work>
    </rdf:RDF>
  </metadata>
  <g inkscape:label="Ebene 1" inkscape:groupmode="layer" id="layer1" transform="translate(-19.82611,-38.488056)">
    <g id="g30" transform="translate(-1.322916,22.6695)">
      <rect style="opacity:0.992;fill:#ffffff;fill-opacity:1;fill-rule:evenodd;stroke:none;stroke-width:0.7;stroke-linecap:square;stroke-miterlimit:4;stroke-dasharray:none" id="rect8732" width="7.1437497" height="3.175" x="27.516666" y="16.753416"/>
      <rect style="opacity:0.992;fill:#004171;fill-opacity:1;fill-rule:evenodd;stroke:none;stroke-width:0.7;stroke-linecap:square;stroke-miterlimit:4;stroke-dasharray:none" id="rect6829" width="8.4666672" height="7.9375005" x="26.458332" y="20.98675"/>
      <path style="fill:#f9b200;fill-opacity:1;stroke-width:1" d="m 21.149026,23.184556 v -7.366 h 7.112 7.112001 v 7.366 7.366 h -7.112001 -7.112 z m 10.830829,4.677833 0.0076,-0.613833 H 30.71691 29.44636 v -2.469444 -2.469445 h -0.832556 -0.832555 v 3.090514 3.090514 l 2.0955,-0.0072 2.0955,-0.0072 z m 2.22917,-1.693333 0.0072,-2.307167 h -0.804498 -0.804498 v 2.314662 2.314662 l 0.797278,-0.0075 0.797277,-0.0075 z m -0.0072,-3.6195 v -0.592667 l -0.797277,-0.0075 -0.797278,-0.0075 v 0.607667 0.607657 l 0.797278,-0.0075 0.797277,-0.0075 z m -4.854243,-2.846475 c 0.553607,-0.147881 0.860778,-0.602501 0.860778,-1.273969 0,-0.417564 -0.09758,-0.699865 -0.326495,-0.944598 -0.430495,-0.460234 -1.293632,-0.491142 -1.767222,-0.06328 -0.139915,0.126405 -0.218503,0.247527 -0.306029,0.471657 -0.05629,0.144139 -0.06639,0.221823 -0.06791,0.522111 -0.0015,0.297951 0.0083,0.381984 0.06316,0.540698 0.178243,0.515774 0.57056,0.783787 1.148613,0.784683 0.1397,2.26e-4 0.3175,-0.01657 0.395111,-0.0373 z m -0.657394,-0.432065 c -0.254901,-0.125628 -0.400939,-0.433894 -0.400939,-0.846326 0,-0.380462 0.120908,-0.651413 0.350797,-0.786127 0.373564,-0.218908 0.823697,-0.03383 0.961764,0.395437 0.07132,0.221752 0.07331,0.593414 0.0043,0.795241 -0.114437,0.334459 -0.317932,0.489372 -0.641338,0.488228 -0.109331,-3.87e-4 -0.218576,-0.01887 -0.274539,-0.04645 z m 3.098616,0.382346 c 0.295893,-0.138893 0.431634,-0.35178 0.431634,-0.676941 0,-0.372774 -0.158312,-0.550896 -0.67536,-0.759871 -0.329121,-0.13302 -0.417828,-0.208771 -0.413731,-0.353301 0.0083,-0.291388 0.34737,-0.401817 0.772888,-0.251685 0.06553,0.02312 0.122248,0.03873 0.126032,0.03468 0.0038,-0.004 0.01585,-0.104193 0.0268,-0.222548 l 0.01992,-0.215191 -0.151151,-0.0383 c -0.08313,-0.02106 -0.284502,-0.03853 -0.447485,-0.03881 -0.274733,-4.75e-4 -0.310082,0.006 -0.484941,0.08884 -0.302956,0.143527 -0.435456,0.377445 -0.413057,0.729216 0.02134,0.335191 0.163433,0.488535 0.638386,0.688951 0.156742,0.06614 0.316862,0.149798 0.355824,0.185906 0.147504,0.136703 0.122013,0.303071 -0.06583,0.42966 -0.158344,0.106709 -0.467485,0.08314 -0.79737,-0.06078 -0.0395,-0.01723 -0.05025,0.0019 -0.065,0.115635 -0.0097,0.07496 -0.02428,0.182823 -0.03236,0.239706 l -0.01469,0.103422 0.178463,0.04364 c 0.121192,0.02963 0.287142,0.04155 0.517128,0.03713 0.297213,-0.0057 0.357667,-0.01542 0.493889,-0.07937 z M 34.27236,19.502106 V 19.29099 l -0.602772,-0.0076 -0.602772,-0.0076 0.588661,-0.841672 0.588661,-0.841672 V 17.38284 17.173235 h -0.846667 -0.846667 v 0.21107 0.21107 l 0.549371,0.0077 0.54937,0.0077 -0.577193,0.832556 -0.577192,0.832555 -4.01e-4,0.218722 -3.99e-4,0.218723 h 0.889 0.889 z" id="path40" sodipodi:nodetypes="cccccccccccccccccccccccccccccccccccccccccssssccccccssscscccsscsccccssssssscscscccccccccccccccccccccccc"/>
    </g>
  </g>
</svg>