<?xml version="1.0" encoding="UTF-8" standalone="no"?>
<svg width="66.743347mm" height="14.732mm" viewBox="0 0 66.743347 14.732" version="1.1" id="svg8" inkscape:version="1.1.2 (b8e25be833, 2022-02-05)" sodipodi:docname="OSZ-LISE-MEITNER.svg" xmlns:inkscape="http://www.inkscape.org/namespaces/inkscape" xmlns:sodipodi="http://sodipodi.sourceforge.net/DTD/sodipodi-0.dtd" xmlns="http://www.w3.org/2000/svg" xmlns:svg="http://www.w3.org/2000/svg" xmlns:rdf="http://www.w3.org/1999/02/22-rdf-syntax-ns#" xmlns:cc="http://creativecommons.org/ns#" xmlns:dc="http://purl.org/dc/elements/1.1/">
  <defs id="defs2">
    <marker markerWidth="18" markerHeight="3" refX="9" refY="1.5000001" orient="auto" id="marker1006">
      <g id="g929" transform="scale(3.7795276)">
        <rect style="fill:#ffffff;fill-opacity:1;fill-rule:nonzero;stroke:none;stroke-width:0.264999;stroke-linecap:butt;stroke-linejoin:round;stroke-miterlimit:4;stroke-dasharray:none" id="rect995" width="2.3812499" height="0.79374999" x="0" y="0" ry="0"/>
        <path id="path835" style="fill-opacity:1;fill-rule:nonzero;stroke:none;stroke-width:0.03975;stroke-linecap:round;stroke-linejoin:round;stroke-miterlimit:4;stroke-dasharray:none;stroke-opacity:1" d="M 0,-3.3333335e-8 V 0.79374997 L 2.38125,0.39687499 Z" sodipodi:nodetypes="cccc" inkscape:transform-center-x="1.1901846"/>
        <path id="path925" style="fill:none;fill-opacity:1;fill-rule:nonzero;stroke:none;stroke-width:0.03975;stroke-linecap:round;stroke-linejoin:round;stroke-miterlimit:4;stroke-dasharray:none;stroke-opacity:1" d="M 4.7625,0 V 0.79375 L 2.38125,0.396875 Z" sodipodi:nodetypes="cccc" inkscape:transform-center-x="-1.1901846"/>
      </g>
    </marker>
    <marker markerWidth="18" markerHeight="3.0000002" refX="9" refY="1.5000002" orient="auto" id="marker1038">
      <g id="g1036" transform="matrix(3.7795276,0,0,3.7795276,9,-6)">
        <rect style="fill:#ffffff;fill-opacity:1;fill-rule:nonzero;stroke:none;stroke-width:0.264999;stroke-linecap:butt;stroke-linejoin:round;stroke-miterlimit:4;stroke-dasharray:none" id="rect995-7" width="2.3812499" height="0.79374999" x="0" y="1.5875001" ry="0"/>
        <path id="path887" style="fill-opacity:1;fill-rule:nonzero;stroke:none;stroke-width:0.03975;stroke-linecap:round;stroke-linejoin:round;stroke-miterlimit:4;stroke-dasharray:none;stroke-opacity:1" d="M 2.38125,1.5875 V 2.38125 L 0,1.984375 Z" sodipodi:nodetypes="cccc" inkscape:transform-center-x="-1.1901846"/>
        <path id="path923" style="fill:none;fill-opacity:1;fill-rule:nonzero;stroke:none;stroke-width:0.03975;stroke-linecap:round;stroke-linejoin:round;stroke-miterlimit:4;stroke-dasharray:none;stroke-opacity:1" d="M -2.38125,1.5875 V 2.38125 L 0,1.984375 Z" sodipodi:nodetypes="cccc" inkscape:transform-center-x="1.1901846"/>
      </g>
    </marker>
  </defs>
  <sodipodi:namedview id="base" pagecolor="#ffffff" bordercolor="#666666" borderopacity="1.0" inkscape:pageopacity="0.0" inkscape:pageshadow="2" inkscape:zoom="2.8" inkscape:cx="71.964286" inkscape:cy="85" inkscape:document-units="mm" inkscape:current-layer="layer1" inkscape:document-rotation="0" showgrid="true" inkscape:snap-grids="true" inkscape:pagecheckerboard="0" fit-margin-top="0" fit-margin-left="0" fit-margin-right="0" fit-margin-bottom="0">
    <inkscape:grid type="xygrid" id="grid833" units="mm" originx="-19.82611" originy="-38.488056"/>
  </sodipodi:namedview>
  <metadata id="metadata5">
    <rdf:RDF>
      <cc:Work rdf:about="">
        <dc:format>image/svg+xml</dc:format>
        <dc:type rdf:resource="http://purl.org/dc/dcmitype/StillImage"/>
      </cc:Work>
    </rdf:RDF>
  </metadata>
  <g inkscape:label="Ebene 1" inkscape:groupmode="layer" id="layer1" transform="translate(-19.82611,-38.488056)">
    <g id="g30" transform="translate(-1.322916,22.6695)">
      <rect style="opacity:0.992;fill:#ffffff;fill-opacity:1;fill-rule:evenodd;stroke:none;stroke-width:0.7;stroke-linecap:square;stroke-miterlimit:4;stroke-dasharray:none" id="rect8732" width="7.1437497" height="3.175" x="27.516666" y="16.753416"/>
      <rect style="opacity:0.992;fill:#004171;fill-opacity:1;fill-rule:evenodd;stroke:none;stroke-width:0.7;stroke-linecap:square;stroke-miterlimit:4;stroke-dasharray:none" id="rect6829" width="8.4666672" height="7.9375005" x="26.458332" y="20.98675"/>
      <path style="fill:#f9b200;fill-opacity:1;stroke-width:1" d="m 21.149026,23.184556 v -7.366 h 7.112 7.112001 v 7.366 7.366 h -7.112001 -7.112 z m 10.830829,4.677833 0.0076,-0.613833 H 30.71691 29.44636 v -2.469444 -2.469445 h -0.832556 -0.832555 v 3.090514 3.090514 l 2.0955,-0.0072 2.0955,-0.0072 z m 2.22917,-1.693333 0.0072,-2.307167 h -0.804498 -0.804498 v 2.314662 2.314662 l 0.797278,-0.0075 0.797277,-0.0075 z m -0.0072,-3.6195 v -0.592667 l -0.797277,-0.0075 -0.797278,-0.0075 v 0.607667 0.607657 l 0.797278,-0.0075 0.797277,-0.0075 z m -4.854243,-2.846475 c 0.553607,-0.147881 0.860778,-0.602501 0.860778,-1.273969 0,-0.417564 -0.09758,-0.699865 -0.326495,-0.944598 -0.430495,-0.460234 -1.293632,-0.491142 -1.767222,-0.06328 -0.139915,0.126405 -0.218503,0.247527 -0.306029,0.471657 -0.05629,0.144139 -0.06639,0.221823 -0.06791,0.522111 -0.0015,0.297951 0.0083,0.381984 0.06316,0.540698 0.178243,0.515774 0.57056,0.783787 1.148613,0.784683 0.1397,2.26e-4 0.3175,-0.01657 0.395111,-0.0373 z m -0.657394,-0.432065 c -0.254901,-0.125628 -0.400939,-0.433894 -0.400939,-0.846326 0,-0.380462 0.120908,-0.651413 0.350797,-0.786127 0.373564,-0.218908 0.823697,-0.03383 0.961764,0.395437 0.07132,0.221752 0.07331,0.593414 0.0043,0.795241 -0.114437,0.334459 -0.317932,0.489372 -0.641338,0.488228 -0.109331,-3.87e-4 -0.218576,-0.01887 -0.274539,-0.04645 z m 3.098616,0.382346 c 0.295893,-0.138893 0.431634,-0.35178 0.431634,-0.676941 0,-0.372774 -0.158312,-0.550896 -0.67536,-0.759871 -0.329121,-0.13302 -0.417828,-0.208771 -0.413731,-0.353301 0.0083,-0.291388 0.34737,-0.401817 0.772888,-0.251685 0.06553,0.02312 0.122248,0.03873 0.126032,0.03468 0.0038,-0.004 0.01585,-0.104193 0.0268,-0.222548 l 0.01992,-0.215191 -0.151151,-0.0383 c -0.08313,-0.02106 -0.284502,-0.03853 -0.447485,-0.03881 -0.274733,-4.75e-4 -0.310082,0.006 -0.484941,0.08884 -0.302956,0.143527 -0.435456,0.377445 -0.413057,0.729216 0.02134,0.335191 0.163433,0.488535 0.638386,0.688951 0.156742,0.06614 0.316862,0.149798 0.355824,0.185906 0.147504,0.136703 0.122013,0.303071 -0.06583,0.42966 -0.158344,0.106709 -0.467485,0.08314 -0.79737,-0.06078 -0.0395,-0.01723 -0.05025,0.0019 -0.065,0.115635 -0.0097,0.07496 -0.02428,0.182823 -0.03236,0.239706 l -0.01469,0.103422 0.178463,0.04364 c 0.121192,0.02963 0.287142,0.04155 0.517128,0.03713 0.297213,-0.0057 0.357667,-0.01542 0.493889,-0.07937 z M 34.27236,19.502106 V 19.29099 l -0.602772,-0.0076 -0.602772,-0.0076 0.588661,-0.841672 0.588661,-0.841672 V 17.38284 17.173235 h -0.846667 -0.846667 v 0.21107 0.21107 l 0.549371,0.0077 0.54937,0.0077 -0.577193,0.832556 -0.577192,0.832555 -4.01e-4,0.218722 -3.99e-4,0.218723 h 0.889 0.889 z" id="path40" sodipodi:nodetypes="cccccccccccccccccccccccccccccccccccccccccssssccccccssscscccsscsccccssssssscscscccccccccccccccccccccccc"/>
      <path style="fill:#004171;fill-opacity:1;stroke-width:1" d="m 37.757805,28.518168 c -0.170745,-0.01194 -0.412045,-0.03657 -0.536222,-0.05475 -0.278699,-0.04079 -0.827691,-0.168157 -0.844911,-0.19602 -0.0087,-0.01412 0.09683,-1.130565 0.1247,-1.318849 2.99e-4,-0.002 0.122784,0.04666 0.27219,0.108176 0.149405,0.06152 0.41293,0.14492 0.585611,0.185339 0.272354,0.06375 0.377553,0.07358 0.793743,0.07415 0.439191,6.03e-4 0.494102,-0.005 0.649111,-0.06623 0.209177,-0.08263 0.337441,-0.206547 0.380919,-0.368013 0.07503,-0.278654 -0.05209,-0.529421 -0.352697,-0.695739 -0.09313,-0.05153 -0.353483,-0.151842 -0.578555,-0.222921 -0.906678,-0.28633 -1.18373,-0.415805 -1.477221,-0.690351 -0.307019,-0.287203 -0.439693,-0.603513 -0.461648,-1.100626 -0.02482,-0.562051 0.107867,-0.935207 0.456859,-1.284788 0.300715,-0.301224 0.700944,-0.491209 1.284454,-0.60972 0.35831,-0.07277 1.074472,-0.09891 1.502064,-0.05483 0.345415,0.03561 0.917393,0.152394 0.961262,0.196262 0.02034,0.02034 -0.05471,1.20772 -0.07828,1.238387 -0.0031,0.0041 -0.08945,-0.0241 -0.191794,-0.06262 -0.462878,-0.174227 -1.269002,-0.249345 -1.699361,-0.158354 -0.42705,0.09029 -0.65104,0.359963 -0.550932,0.663294 0.07651,0.231827 0.303165,0.362324 0.957851,0.551481 0.222169,0.06419 0.524412,0.159768 0.671649,0.212393 0.854538,0.305424 1.247633,0.8275 1.249276,1.659185 0.0015,0.768523 -0.337945,1.356231 -0.967686,1.675345 -0.49373,0.250192 -1.341874,0.376325 -2.15038,0.319799 z m 3.880556,-3.14639 v -3.062111 h 2.159 2.159 v 0.564445 0.564444 H 44.615805 43.27525 v 0.649111 0.649111 h 1.27 1.27 v 0.564445 0.564444 h -1.27 -1.27 v 0.705556 0.705555 h 1.382888 1.382889 v 0.578556 0.578556 h -2.201333 -2.201333 z m 7.732889,0 v -3.062111 h 1.27946 1.279457 l 0.64671,2.031651 c 0.355687,1.117408 0.655173,2.031808 0.665522,2.032 0.01035,1.97e-4 0.322555,-0.910876 0.69379,-2.024595 l 0.674977,-2.024945 1.246488,-0.0073 1.246485,-0.0073 v 3.062405 3.062405 H 56.30282 55.501503 l 0.01539,-2.356654 c 0.0085,-1.296106 0.0081,-2.356556 -7.34e-4,-2.356556 -0.0089,0 -0.369573,1.060649 -0.801573,2.356998 l -0.785456,2.356997 -0.747084,-0.0075 -0.747085,-0.0075 -0.735285,-2.314222 c -0.404407,-1.272817 -0.744581,-2.333267 -0.755941,-2.35655 -0.01136,-0.02328 -0.01494,1.021291 -0.0079,2.321277 l 0.01271,2.363612 H 50.15992 49.371295 v -3.062112 z m 8.607778,0 v -3.062111 h 2.159 2.159 v 0.564445 0.564444 h -1.340555 -1.340556 v 0.649111 0.649111 h 1.27 1.27 v 0.564445 0.564444 h -1.27 -1.27 v 0.705556 0.705555 h 1.397 1.397 v 0.578556 0.578556 h -2.215444 -2.215445 z m 5.164667,0 v -3.062111 h 0.804333 0.804334 v 3.062111 3.062112 h -0.804334 -0.804333 z m 3.894667,0.592667 v -2.469444 h -0.747889 -0.747889 v -0.592667 -0.592667 h 2.328333 2.328334 v 0.592667 0.592667 h -0.762 -0.762 v 2.469444 2.469445 h -0.818445 -0.818444 z m 4.064,-0.592667 v -3.062111 h 1.030137 1.030136 l 1.037051,2.074334 c 0.57038,1.140883 1.043551,2.074333 1.051495,2.074333 0.0079,0 0.0097,-0.93345 0.004,-2.074333 l -0.01048,-2.074334 h 0.736958 0.736958 v 3.062111 3.062112 l -1.008944,-6.5e-4 -1.008945,-6.49e-4 -1.072444,-2.101606 c -0.589844,-1.155883 -1.082748,-2.101741 -1.095341,-2.101905 -0.01259,-1.7e-4 -0.01618,0.05368 -0.008,0.119644 0.0082,0.06597 0.02305,1.01212 0.03297,2.102556 l 0.01804,1.982611 H 71.839158 71.102363 V 25.37178 Z m 6.406445,0 v -3.062111 h 2.159 2.159 v 0.564445 0.564444 h -1.340556 -1.340555 v 0.649111 0.649111 h 1.27 1.27 v 0.564445 0.564444 h -1.27 -1.27 v 0.705556 0.705555 h 1.382889 1.382889 v 0.578556 0.578556 H 79.71014 77.508807 Z m 5.192889,-0.0014 v -3.063505 l 1.742722,0.0096 c 1.715496,0.0095 1.74603,0.01062 1.954389,0.07353 0.690313,0.208431 1.071773,0.58933 1.17589,1.174162 0.06616,0.371612 0.0018,0.807093 -0.166085,1.122979 -0.160686,0.302426 -0.453333,0.53189 -0.837215,0.65646 l -0.151965,0.04931 0.165484,0.08819 c 0.292472,0.155869 0.355343,0.288403 1.019121,2.148415 0.116327,0.325966 0.228789,0.640477 0.249919,0.698912 l 0.03842,0.106245 -0.848456,-0.0075 -0.848453,-0.0075 -0.246315,-0.762 C 85.669268,26.791949 85.590424,26.589027 85.45391,26.383187 85.262166,26.094064 85.071423,26.006778 84.631371,26.006778 h -0.292786 v 1.213556 1.213556 H 83.52014 82.701696 v -3.063505 z m 2.656953,-0.56144 c 0.239369,-0.05074 0.397995,-0.132064 0.484293,-0.248295 0.216913,-0.292158 0.165882,-0.704034 -0.113312,-0.914564 -0.165704,-0.124951 -0.437873,-0.181702 -0.960656,-0.200312 l -0.430389,-0.01532 v 0.709607 0.709608 l 0.416278,-4.91e-4 c 0.248448,-2.94e-4 0.491873,-0.01651 0.603786,-0.04023 z" id="path32" sodipodi:nodetypes="sccsssssssssssssscssssscssscccccccccccccccccccccccccccccsssccccccccsscccsscccccccccccccccccccccccccccccccccccccccccccccccccccccccccccccssccccccccsscscccccccccccccccccccccccccccccccccsscscsssccccsscccccccsssscccsss"/>
    </g>
  </g>
</svg>